<?xml version="1.0" standalone="no"?><!DOCTYPE svg PUBLIC "-//W3C//DTD SVG 1.1//EN" "http://www.w3.org/Graphics/SVG/1.1/DTD/svg11.dtd"><svg t="1506477055309" class="icon" style="" viewBox="0 0 1024 1024" version="1.1" xmlns="http://www.w3.org/2000/svg" p-id="5715" xmlns:xlink="http://www.w3.org/1999/xlink" width="48" height="48"><defs><style type="text/css"></style></defs><path d="M510.263449 59.552328c-257.145591 0-465.60432 208.458729-465.60432 465.60432 0 257.146615 208.458729 465.60432 465.60432 465.60432 257.146615 0 465.60432-208.457706 465.60432-465.60432C975.86777 268.011057 767.410064 59.552328 510.263449 59.552328zM758.263753 720.588689c14.985296 14.989389 14.985296 39.283702 0 54.273091-7.494695 7.489578-17.318434 11.236925-27.137057 11.236925s-19.641339-3.747347-27.137057-11.236925L508.558621 579.428715 313.125557 774.86178c-7.494695 7.489578-17.318434 11.236925-27.137057 11.236925s-19.641339-3.747347-27.137057-11.236925c-14.985296-14.989389-14.985296-39.283702 0-54.273091l195.432041-195.432041L258.852466 329.723583c-14.985296-14.989389-14.985296-39.283702 0-54.273091 14.989389-14.980179 39.283702-14.980179 54.273091 0l195.432041 195.432041 195.432041-195.432041c14.989389-14.980179 39.283702-14.980179 54.273091 0 14.985296 14.989389 14.985296 39.283702 0 54.273091L562.831712 525.155624 758.263753 720.588689z" p-id="5716"></path></svg>