<?xml version="1.0" standalone="no"?><!DOCTYPE svg PUBLIC "-//W3C//DTD SVG 1.1//EN" "http://www.w3.org/Graphics/SVG/1.1/DTD/svg11.dtd"><svg t="1506412392636" class="icon" style="" viewBox="0 0 1024 1024" version="1.1" xmlns="http://www.w3.org/2000/svg" p-id="5633" xmlns:xlink="http://www.w3.org/1999/xlink" width="64" height="64"><defs><style type="text/css"></style></defs><path d="M793.6 25.6c112.64 0 204.8 92.16 204.8 204.8l0 563.2c0 112.64-92.16 204.8-204.8 204.8L230.4 998.4c-112.64 0-204.8-92.16-204.8-204.8L25.6 230.4c0-112.64 92.16-204.8 204.8-204.8L793.6 25.6M793.6 0 230.4 0C104.96 0 0 104.96 0 230.4l0 563.2c0 128 104.96 230.4 230.4 230.4l563.2 0c125.44 0 230.4-102.4 230.4-230.4L1024 230.4C1024 104.96 919.04 0 793.6 0L793.6 0z" p-id="5634"></path></svg>