<?xml version="1.0" standalone="no"?><!DOCTYPE svg PUBLIC "-//W3C//DTD SVG 1.1//EN" "http://www.w3.org/Graphics/SVG/1.1/DTD/svg11.dtd"><svg t="1506566433780" class="icon" style="" viewBox="0 0 1025 1024" version="1.1" xmlns="http://www.w3.org/2000/svg" p-id="23738" xmlns:xlink="http://www.w3.org/1999/xlink" width="128.125" height="128"><defs><style type="text/css"></style></defs><path d="M906.497966 758.252122c74.203068-44.24614 117.49329-124.607296 117.502034-221.478422 0-4.636781-1.841889-9.087042-5.120568-12.365721-3.281594-3.278679-7.726025-5.120568-12.365721-5.120568-67.430045 0-127.238982 20.68628-172.965628 59.820595-32.95874 28.205384-56.961587 64.60018-70.936046 106.902428-122.838266-101.228127-257.803274-156.13216-386.959919-156.13216-153.133262 0-285.615216 77.840216-373.037918 219.18189C0.906373 751.822997 0 755.017159 0 758.269609c0 8.256443 5.77339 15.387934 13.852055 17.104505l45.525553 9.675747-14.755514 6.962457c-4.817473 2.273218-8.338045 6.61856-9.559171 11.806159-1.221126 5.184685-0.011658 10.646236 3.287422 14.831287 86.595018 109.91007 203.234394 168.005351 337.307601 168.005351 129.150816 0 264.095423-54.889461 386.927861-156.105931 13.983202 42.29059 38.021021 78.662071 70.968104 106.864541 45.723731 39.143058 105.529754 59.832252 172.95397 59.835167 4.636781 0 9.084127-1.841889 12.362806-5.120568 3.281594-3.278679 5.123483-7.72894 5.123483-12.365721C1023.988342 882.879819 980.701034 802.504091 906.497966 758.252122zM79.889026 814.042128l41.328844-19.497212c6.787595-3.202905 10.774468-10.378113 9.908897-17.8331-0.865571-7.454988-6.394153-13.525645-13.732566-15.087753l-71.349888-15.163527c80.57682-117.344657 196.767382-181.612598 329.613634-181.612598 138.838221 0 285.807565 68.546253 415.474227 193.412929-129.663748 124.866676-276.636007 193.415843-415.474227 193.415843C259.773395 951.679623 157.959478 904.189776 79.889026 814.042128zM791.723794 805.43013c12.339491-11.089222 24.547835-22.624344 36.587145-34.657825 3.812011-3.721665 5.738417-9.011268 5.164284-14.367901-0.434243-4.07722-2.279046-7.810542-5.126397-10.611263-12.074283-12.071368-24.317599-23.635634-36.694978-34.756914 23.877528-90.785898 97.669667-149.825439 196.787782-156.202106-5.674301 87.099206-52.479268 156.336167-127.626595 187.246097-6.554444 2.695803-10.83567 9.084127-10.83567 16.171903 0 7.087776 4.278312 13.4761 10.832756 16.171903 75.150241 30.915759 121.94938 100.164378 127.617852 187.272327C889.314773 955.316771 815.589664 896.233515 791.723794 805.43013z" p-id="23739" fill="#ffffff"></path><path d="M198.580127 663.864049c-29.088442 0-52.756134 23.667692-52.756134 52.756134 0 29.088442 23.664778 52.75322 52.756134 52.75322 29.088442 0 52.756134-23.664778 52.756134-52.75322C251.333347 687.528826 227.668569 663.864049 198.580127 663.864049zM198.580127 734.400824c-9.803979 0-17.783556-7.976662-17.783556-17.780642 0-9.806894 7.976662-17.783556 17.783556-17.783556 9.803979 0 17.783556 7.976662 17.783556 17.783556C216.360769 726.424162 208.384106 734.400824 198.580127 734.400824z" p-id="23740" fill="#ffffff"></path><path d="M568.729893 758.164691c-9.65826 0-17.486289 7.830943-17.486289 17.486289 0 62.874867-51.15031 114.025176-114.022262 114.025176-9.655346 0-17.486289 7.830943-17.486289 17.486289 0 9.65826 7.830943 17.486289 17.486289 17.486289 82.1535 0 148.99484-66.838425 148.99484-148.997754C586.216182 765.995634 578.388153 758.164691 568.729893 758.164691z" p-id="23741" fill="#ffffff"></path><path d="M0.014572 487.2263c0 4.636781 1.841889 9.087042 5.123483 12.365721 3.278679 3.278679 7.726025 5.120568 12.362806 5.120568 67.424216-0.002914 127.227325-20.692109 172.95397-59.835167 32.947083-28.20247 56.984902-64.573951 70.968104-106.864541 122.832437 101.21647 257.77413 156.105931 386.927861 156.105931 134.073207 0 250.712583-58.095281 337.307601-168.005351 3.296165-4.185052 4.508548-9.646603 3.284508-14.831287-1.221126-5.187599-4.741699-9.532942-9.556257-11.806159l-14.758428-6.962457 45.522639-9.675747c8.075751-1.716571 13.852055-8.848062 13.852055-17.104505 0-3.249535-0.906373-6.446612-2.6142-9.209446-87.419788-141.341674-219.904656-219.18189-373.037918-219.18189-129.156645 0-264.121653 54.904033-386.959919 156.13216-13.974459-42.302248-37.977305-78.697044-70.936046-106.902428C144.725271 47.440302 84.916334 26.756937 17.486289 26.756937c-4.639695 0-9.084127 1.841889-12.365721 5.120568C1.841889 35.159098 0 39.606445 0 44.243226 0.008743 141.114352 43.30188 221.478422 117.502034 265.721648 43.30188 309.973617 0.014572 390.349344 0.014572 487.2263zM648.347882 459.149149c-138.835306 0-285.807565-68.549167-415.474227-193.415843 129.663748-124.866676 276.636007-193.412929 415.474227-193.412929 132.846252 0 249.0339 64.267941 329.613634 181.612598l-71.349888 15.163527c-7.338413 1.562108-12.86408 7.632765-13.732566 15.087753-0.868486 7.454988 3.121303 14.630195 9.905983 17.8331l41.331759 19.497212C866.040522 411.662216 764.226605 459.149149 648.347882 459.149149zM35.567112 469.165878c5.668472-87.107949 52.46761-156.356568 127.617852-187.272327 6.554444-2.695803 10.832756-9.084127 10.832756-16.171903 0-7.087776-4.281226-13.4761-10.83567-16.171903C88.034722 218.639815 41.23267 149.402853 35.555454 62.303648c99.121029 6.376667 172.910255 65.416207 196.790697 156.202106-12.377378 11.12128-24.620695 22.68846-36.694978 34.756914-2.847351 2.800721-4.68924 6.534043-5.126397 10.611263-0.571219 5.353719 1.355187 10.643321 5.164284 14.367901 12.03931 12.033481 24.24474 23.568603 36.587145 34.657825C208.41325 403.70304 134.688141 462.786297 35.567112 469.165878z" p-id="23742" fill="#ffffff"></path><path d="M772.666653 224.089708c0 29.088442 23.664778 52.75322 52.756134 52.75322 29.088442 0 52.756134-23.664778 52.756134-52.75322 0-29.088442-23.664778-52.756134-52.756134-52.756134C796.331431 171.333574 772.666653 194.998352 772.666653 224.089708zM807.639231 224.089708c0-9.806894 7.976662-17.783556 17.783556-17.783556 9.803979 0 17.783556 7.976662 17.783556 17.783556 0 9.803979-7.976662 17.780642-17.783556 17.780642C815.615894 241.87035 807.639231 233.893688 807.639231 224.089708z" p-id="23743" fill="#ffffff"></path><path d="M455.270107 265.634217c9.65826 0 17.486289 7.830943 17.486289 17.486289 0 62.874867 51.15031 114.025176 114.022262 114.025176 9.655346 0 17.486289 7.830943 17.486289 17.486289 0 9.655346-7.830943 17.486289-17.486289 17.486289-82.1535 0-148.99484-66.84134-148.99484-148.997754C437.783818 273.46516 445.611847 265.634217 455.270107 265.634217z" p-id="23744" fill="#ffffff"></path></svg>