<?xml version="1.0" standalone="no"?><!DOCTYPE svg PUBLIC "-//W3C//DTD SVG 1.1//EN" "http://www.w3.org/Graphics/SVG/1.1/DTD/svg11.dtd"><svg t="1506565176549" class="icon" style="" viewBox="0 0 1024 1024" version="1.1" xmlns="http://www.w3.org/2000/svg" p-id="21899" xmlns:xlink="http://www.w3.org/1999/xlink" width="128" height="128"><defs><style type="text/css"></style></defs><path d="M940.467 834.119h-518.203c-7.646 0-14.766-4.043-18.633-10.723s-3.867-14.854 0-21.533l259.102-449.033c3.867-6.68 10.987-10.722 18.633-10.722s14.766 4.043 18.633 10.722l259.102 449.033c3.867 6.68 3.867 14.854 0 21.533-3.779 6.592-10.898 10.723-18.633 10.723zM459.529 791.053h443.76l-221.924-384.434-221.836 384.434z" p-id="21900"></path><path d="M872.879 150.154c-51.152-51.153-119.18-79.365-191.513-79.365s-140.362 28.213-191.513 79.365c-51.153 51.153-79.278 119.268-79.278 191.602 0 13.359 0.967 26.543 2.813 39.463h-222.188c-71.279 0-129.2 57.92-129.2 129.2v313.594c0 71.279 57.92 129.2 129.2 129.2h313.418c71.279 0 129.2-57.92 129.2-129.2v-215.508c15.557 2.813 31.465 4.219 47.636 4.219 72.334 0 140.362-28.213 191.513-79.365 51.153-51.153 79.278-119.268 79.278-191.602 0-72.334-28.213-140.45-79.365-191.602zM590.75 824.012c0 47.549-38.672 86.221-86.221 86.221h-313.33c-47.461 0-86.221-38.672-86.221-86.221v-313.594c0-47.549 38.672-86.221 86.221-86.221h232.119c13.008 40.781 35.596 78.047 66.621 109.161 29.004 29.004 63.369 50.625 100.898 63.896v226.758h-0.088zM590.75 550.848c-55.547-24.17-99.756-69.873-121.729-126.651h35.596c47.549 0 86.221 38.672 86.221 86.221l-0.088 40.43zM681.365 569.656c-16.348 0-32.256-1.758-47.637-5.010v-54.229c0-71.279-57.92-129.2-129.2-129.2h-47.637c-2.286-12.833-3.428-26.016-3.428-39.463 0-125.684 102.217-227.988 227.813-227.988 125.771 0 227.988 102.305 227.988 227.988 0 125.684-102.217 227.901-227.901 227.901z" p-id="21901"></path></svg>