<?xml version="1.0" standalone="no"?><!DOCTYPE svg PUBLIC "-//W3C//DTD SVG 1.1//EN" "http://www.w3.org/Graphics/SVG/1.1/DTD/svg11.dtd"><svg t="1506566228201" class="icon" style="" viewBox="0 0 1024 1024" version="1.1" xmlns="http://www.w3.org/2000/svg" p-id="22143" xmlns:xlink="http://www.w3.org/1999/xlink" width="128" height="128"><defs><style type="text/css"></style></defs><path d="M0 0" p-id="22144" fill="#ffffff"></path><path d="M729.1904 960.682667h-50.414933c-76.117333 0-150.254933-27.989333-203.434667-76.936534a17.089422 17.089422 0 0 1-1.024-24.132266 17.089422 17.089422 0 0 1 24.132267-0.989867c46.933333 43.2128 112.674133 67.925333 180.3264 67.925333h50.414933c108.475733 0 235.076267-51.473067 235.076267-196.676266 0-133.905067-107.6224-247.057067-235.076267-247.057067h-50.414933c-56.866133 0-112.0256 22.016-155.306667 61.952a17.066667 17.066667 0 1 1-23.1424-25.088c49.664-45.7728 112.981333-70.997333 178.449067-70.997333h50.414933c145.92 0 269.2096 128.750933 269.2096 281.1904 0 138.069333-108.202667 230.8096-269.2096 230.8096z" p-id="22145" fill="#ffffff"></path><path d="M714.3424 482.816c-4.266667 0-8.567467-1.604267-11.946667-4.846933a17.146311 17.146311 0 0 1-0.341333-24.132267l115.746133-119.057067a17.112178 17.112178 0 0 1 24.132267-0.341333 17.180444 17.180444 0 0 1 0.341333 24.132267L726.528 477.627733a16.850489 16.850489 0 0 1-12.1856 5.188267zM310.715733 960.682667h-44.714666c-141.550933 0-240.401067-105.301333-240.401067-256.068267 0-135.9872 94.446933-528.9984 240.401067-528.9984h44.714666c145.954133 0 240.401067 393.0112 240.401067 528.9984 0 150.766933-98.850133 256.068267-240.401067 256.068267z m-44.714666-750.933334c-102.7072 0-206.267733 339.319467-206.267734 494.865067 0 132.744533 82.909867 221.934933 206.267734 221.934933h44.714666c123.357867 0 206.267733-89.1904 206.267734-221.934933 0-155.5456-103.560533-494.865067-206.267734-494.865067h-44.714666z" p-id="22146" fill="#ffffff"></path><path d="M315.630933 206.609067c-4.369067 0-8.738133-1.672533-12.0832-4.983467a17.021156 17.021156 0 0 1 0-24.132267l109.192534-109.1584c6.656-6.656 17.476267-6.656 24.132266 0s6.656 17.476267 0 24.132267L327.68 201.6256a17.146311 17.146311 0 0 1-12.049067 4.983467zM685.329067 414.1056c-1.399467 0-2.798933-0.170667-4.130134-0.477867-62.532267-15.530667-109.909333-48.878933-133.393066-93.934933-21.8112-41.813333-22.664533-91.784533-2.423467-144.5888a17.021156 17.021156 0 0 1 18.6368-10.752c142.7456 23.005867 139.434667 181.111467 138.3424 233.0624a17.043911 17.043911 0 0 1-6.656 13.2096 16.896 16.896 0 0 1-10.376533 3.4816z m-112.810667-213.0944c-11.6736 38.161067-9.8304 73.489067 5.5296 102.912 16.349867 31.300267 47.991467 55.842133 90.3168 70.417067-0.9216-74.171733-16.2816-152.6784-95.8464-173.329067z" p-id="22147" fill="#ffffff"></path></svg>